<?xml version="1.0" encoding="utf-8"?>
<svg viewBox="0 1464.307 2666.6662 1202.3598" xmlns="http://www.w3.org/2000/svg">
  <g transform="matrix(0.13333332737286877, 0, 0, -0.13333332737286877, 2.2737367544323206e-13, 2666.6667877833065)">
    <g>
      <path d="m 11630.1,4218.7 c -1082.4,-133 -2177.77,-133 -3260.21,0 -462.37,841.3 80.09,1593.2 1630.11,2439.7 1550,-846.5 2092.5,-1598.4 1630.1,-2439.7" style="fill:#000000;fill-opacity:1;fill-rule:nonzero;stroke:none" id="path14"/>
      <path d="m 11630.1,4218.7 c -1082.4,-133 -2177.77,-133 -3260.21,0 -462.37,841.3 80.09,1593.2 1630.11,2439.7 1550,-846.5 2092.5,-1598.4 1630.1,-2439.7" style="fill:#000000;fill-opacity:1;fill-rule:nonzero;stroke:none" id="path16"/>
      <path d="M 10304.4 6475.1 C 10102.3 6445.1 9897.72 6445.1 9695.57 6475.1 C 9609.22 6664.9 9710.52 6834.5 10000 7025.4 C 10289.5 6834.5 10390.8 6664.9 10304.4 6475.1" style="fill:#000000;fill-opacity:1;fill-rule:nonzero;stroke:none" id="path18"/>
      <path d="M 10304.4 6475.1 C 10102.3 6445.1 9897.72 6445.1 9695.57 6475.1 C 9609.22 6664.9 9710.52 6834.5 10000 7025.4 C 10289.5 6834.5 10390.8 6664.9 10304.4 6475.1" style="fill:#000000;fill-opacity:1;fill-rule:nonzero;stroke:none" id="path20"/>
      <path d="M 10098.1 6992.4 C 10032.9 6982.7 9967.05 6982.7 9901.92 6992.4 C 9874.11 7053.5 9906.74 7108.2 10000 7169.7 C 10093.3 7108.2 10125.9 7053.5 10098.1 6992.4" style="fill:#000000;fill-opacity:1;fill-rule:nonzero;stroke:none" id="path22"/>
      <path d="M 10098.1 6992.4 C 10032.9 6982.7 9967.05 6982.7 9901.92 6992.4 C 9874.11 7053.5 9906.74 7108.2 10000 7169.7 C 10093.3 7108.2 10125.9 7053.5 10098.1 6992.4" style="fill:#000000;fill-opacity:1;fill-rule:nonzero;stroke:none" id="path24"/>
      <path d="M 10042.7 7025.4 L 9957.29 7025.4 L 10000 8627 L 10042.7 7025.4 Z" style="fill:#000000;fill-opacity:1;fill-rule:nonzero;stroke:none" id="path26"/>
      <path d="M 9965.54 8790.4 C 9927.63 8876.4 9966.92 8975.8 10053.3 9015.3 C 10022.8 9017.3 9991.36 9012.6 9961.32 9000.1 C 9859.88 8957.8 9812.88 8843.5 9856.35 8744.9 C 9899.82 8646.2 10017.3 8600.5 10118.7 8642.8 C 10148.8 8655.3 10174 8674.2 10193.6 8697 C 10104.5 8663.5 10003.5 8704.3 9965.54 8790.4" style="fill:#000000;fill-opacity:1;fill-rule:nonzero;stroke:none" id="path28"/>
      <path d="M 14328.8 3701.9 C 13853.8 3643.6 13373.1 3643.6 12898.1 3701.9 C 12695.2 4071.1 12933.3 4401.1 13613.4 4772.5 C 14293.6 4401.1 14531.7 4071.1 14328.8 3701.9" style="fill:#000000;fill-opacity:1;fill-rule:nonzero;stroke:none" id="path30"/>
      <path d="M 14328.8 3701.9 C 13853.8 3643.6 13373.1 3643.6 12898.1 3701.9 C 12695.2 4071.1 12933.3 4401.1 13613.4 4772.5 C 14293.6 4401.1 14531.7 4071.1 14328.8 3701.9" style="fill:#000000;fill-opacity:1;fill-rule:nonzero;stroke:none" id="path32"/>
      <path d="M 13747 4692.1 C 13658.3 4679 13568.6 4679 13479.9 4692.1 C 13442 4775.4 13486.4 4849.8 13613.4 4933.6 C 13740.5 4849.8 13784.9 4775.4 13747 4692.1" style="fill:#000000;fill-opacity:1;fill-rule:nonzero;stroke:none" id="path34"/>
      <path d="M 13747 4692.1 C 13658.3 4679 13568.6 4679 13479.9 4692.1 C 13442 4775.4 13486.4 4849.8 13613.4 4933.6 C 13740.5 4849.8 13784.9 4775.4 13747 4692.1" style="fill:#000000;fill-opacity:1;fill-rule:nonzero;stroke:none" id="path36"/>
      <path d="M 13656.5 4919.1 C 13627.9 4914.9 13599 4914.9 13570.4 4919.1 C 13558.2 4945.9 13572.5 4969.9 13613.4 4996.9 C 13654.4 4969.9 13668.7 4945.9 13656.5 4919.1" style="fill:#000000;fill-opacity:1;fill-rule:nonzero;stroke:none" id="path38"/>
      <path d="M 13656.5 4919.1 C 13627.9 4914.9 13599 4914.9 13570.4 4919.1 C 13558.2 4945.9 13572.5 4969.9 13613.4 4996.9 C 13654.4 4969.9 13668.7 4945.9 13656.5 4919.1" style="fill:#000000;fill-opacity:1;fill-rule:nonzero;stroke:none" id="path40"/>
      <path d="M 13632.2 4933.6 L 13594.7 4933.6 L 13613.4 5636.4 L 13632.2 4933.6 Z" style="fill:#000000;fill-opacity:1;fill-rule:nonzero;stroke:none" id="path42"/>
      <path d="M 18732.3 3185.2 C 18116.3 3109.5 17493 3109.5 16877 3185.2 C 16613.9 3664 16922.6 4091.8 17804.7 4573.5 C 18686.7 4091.8 18995.4 3664 18732.3 3185.2" style="fill:#000000;fill-opacity:1;fill-rule:nonzero;stroke:none" id="path44"/>
      <path d="M 18732.3 3185.2 C 18116.3 3109.5 17493 3109.5 16877 3185.2 C 16613.9 3664 16922.6 4091.8 17804.7 4573.5 C 18686.7 4091.8 18995.4 3664 18732.3 3185.2" style="fill:#000000;fill-opacity:1;fill-rule:nonzero;stroke:none" id="path46"/>
      <path d="M 17977.9 4469.3 C 17862.9 4452.2 17746.5 4452.2 17631.4 4469.3 C 17582.3 4577.3 17639.9 4673.8 17804.7 4782.4 C 17969.4 4673.8 18027 4577.3 17977.9 4469.3" style="fill:#000000;fill-opacity:1;fill-rule:nonzero;stroke:none" id="path48"/>
      <path d="M 17977.9 4469.3 C 17862.9 4452.2 17746.5 4452.2 17631.4 4469.3 C 17582.3 4577.3 17639.9 4673.8 17804.7 4782.4 C 17969.4 4673.8 18027 4577.3 17977.9 4469.3" style="fill:#000000;fill-opacity:1;fill-rule:nonzero;stroke:none" id="path50"/>
      <path d="M 17860.5 4763.6 C 17823.4 4758.1 17785.9 4758.1 17748.8 4763.6 C 17733 4798.4 17751.6 4829.5 17804.7 4864.5 C 17857.7 4829.5 17876.3 4798.4 17860.5 4763.6" style="fill:#000000;fill-opacity:1;fill-rule:nonzero;stroke:none" id="path52"/>
      <path d="M 17860.5 4763.6 C 17823.4 4758.1 17785.9 4758.1 17748.8 4763.6 C 17733 4798.4 17751.6 4829.5 17804.7 4864.5 C 17857.7 4829.5 17876.3 4798.4 17860.5 4763.6" style="fill:#000000;fill-opacity:1;fill-rule:nonzero;stroke:none" id="path54"/>
      <path d="M 17829 4782.4 L 17780.4 4782.4 L 17804.7 5693.8 L 17829 4782.4 Z" style="fill:#000000;fill-opacity:1;fill-rule:nonzero;stroke:none" id="path56"/>
      <path d="M 12717.7 6819 C 12435.8 6784.4 12150.6 6784.4 11868.7 6819 C 11748.3 7038.1 11889.6 7233.8 12293.2 7454.3 C 12696.8 7233.8 12838 7038.1 12717.7 6819" style="fill:#000000;fill-opacity:1;fill-rule:nonzero;stroke:none" id="path58"/>
      <path d="M 12717.7 6819 C 12435.8 6784.4 12150.6 6784.4 11868.7 6819 C 11748.3 7038.1 11889.6 7233.8 12293.2 7454.3 C 12696.8 7233.8 12838 7038.1 12717.7 6819" style="fill:#000000;fill-opacity:1;fill-rule:nonzero;stroke:none" id="path60"/>
      <path d="M 12372.5 7406.6 C 12319.8 7398.7 12266.6 7398.7 12213.9 7406.6 C 12191.4 7456 12217.8 7500.1 12293.2 7549.8 C 12368.6 7500.1 12394.9 7456 12372.5 7406.6" style="fill:#000000;fill-opacity:1;fill-rule:nonzero;stroke:none" id="path62"/>
      <path d="M 12372.5 7406.6 C 12319.8 7398.7 12266.6 7398.7 12213.9 7406.6 C 12191.4 7456 12217.8 7500.1 12293.2 7549.8 C 12368.6 7500.1 12394.9 7456 12372.5 7406.6" style="fill:#000000;fill-opacity:1;fill-rule:nonzero;stroke:none" id="path64"/>
      <path d="M 12318.7 7541.2 C 12301.8 7538.7 12284.6 7538.7 12267.6 7541.2 C 12260.4 7557.2 12268.9 7571.4 12293.2 7587.4 C 12317.5 7571.4 12326 7557.2 12318.7 7541.2" style="fill:#000000;fill-opacity:1;fill-rule:nonzero;stroke:none" id="path66"/>
      <path d="M 12318.7 7541.2 C 12301.8 7538.7 12284.6 7538.7 12267.6 7541.2 C 12260.4 7557.2 12268.9 7571.4 12293.2 7587.4 C 12317.5 7571.4 12326 7557.2 12318.7 7541.2" style="fill:#000000;fill-opacity:1;fill-rule:nonzero;stroke:none" id="path68"/>
      <path d="M 12304.3 7549.8 L 12282.1 7549.8 L 12293.2 7966.9 L 12304.3 7549.8 Z" style="fill:#000000;fill-opacity:1;fill-rule:nonzero;stroke:none" id="path70"/>
      <path d="M 12738.4 3870.5 L 11847.9 3870.5 L 11847.9 6845.9 L 12738.4 6845.9 L 12738.4 3870.5" style="fill:#000000;fill-opacity:1;fill-rule:nonzero;stroke:none" id="path72"/>
      <path d="M 12828.1 6720.7 L 11758.3 6720.7 L 11758.3 6793 L 12828.1 6793 L 12828.1 6720.7" style="fill:#000000;fill-opacity:1;fill-rule:nonzero;stroke:none" id="path74"/>
      <path d="M 12293.2 6507.5 C 12214.2 6507.5 12150.2 6445.2 12150.2 6368.4 L 12150.2 6072.2 L 12436.2 6072.2 L 12436.2 6368.4 C 12436.2 6445.2 12372.1 6507.5 12293.2 6507.5" style="fill:#ffffff;fill-opacity:1;fill-rule:nonzero;stroke:none" id="path76"/>
      <path d="M 12717.7 6507.5 C 12638.7 6507.5 12574.7 6445.2 12574.7 6368.4 L 12574.7 6072.2 L 12717.7 6072.2 L 12717.7 6507.5" style="fill:#ffffff;fill-opacity:1;fill-rule:nonzero;stroke:none" id="path78"/>
      <path d="M 11868.2 6507.5 C 11947.1 6507.5 12011.1 6445.2 12011.1 6368.4 L 12011.1 6072.2 L 11868.2 6072.2 L 11868.2 6507.5" style="fill:#ffffff;fill-opacity:1;fill-rule:nonzero;stroke:none" id="path80"/>
      <path d="M 15693.4 7468.7 C 15313.1 7422 14928.2 7422 14547.8 7468.7 C 14385.4 7764.4 14576 8028.5 15120.6 8326 C 15665.3 8028.5 15855.9 7764.4 15693.4 7468.7" style="fill:#000000;fill-opacity:1;fill-rule:nonzero;stroke:none" id="path82"/>
      <path d="M 15693.4 7468.7 C 15313.1 7422 14928.2 7422 14547.8 7468.7 C 14385.4 7764.4 14576 8028.5 15120.6 8326 C 15665.3 8028.5 15855.9 7764.4 15693.4 7468.7" style="fill:#000000;fill-opacity:1;fill-rule:nonzero;stroke:none" id="path84"/>
      <path d="M 15227.6 8261.6 C 15156.6 8251.1 15084.7 8251.1 15013.7 8261.6 C 14983.3 8328.3 15018.9 8387.9 15120.6 8455 C 15222.3 8387.9 15257.9 8328.3 15227.6 8261.6" style="fill:#000000;fill-opacity:1;fill-rule:nonzero;stroke:none" id="path86"/>
      <path d="M 15227.6 8261.6 C 15156.6 8251.1 15084.7 8251.1 15013.7 8261.6 C 14983.3 8328.3 15018.9 8387.9 15120.6 8455 C 15222.3 8387.9 15257.9 8328.3 15227.6 8261.6" style="fill:#000000;fill-opacity:1;fill-rule:nonzero;stroke:none" id="path88"/>
      <path d="M 15155.1 8443.3 C 15132.2 8440 15109.1 8440 15086.2 8443.3 C 15076.4 8464.8 15087.9 8484 15120.6 8505.6 C 15153.4 8484 15164.9 8464.8 15155.1 8443.3" style="fill:#000000;fill-opacity:1;fill-rule:nonzero;stroke:none" id="path90"/>
      <path d="M 15155.1 8443.3 C 15132.2 8440 15109.1 8440 15086.2 8443.3 C 15076.4 8464.8 15087.9 8484 15120.6 8505.6 C 15153.4 8484 15164.9 8464.8 15155.1 8443.3" style="fill:#000000;fill-opacity:1;fill-rule:nonzero;stroke:none" id="path92"/>
      <path d="M 15135.6 8455 L 15105.6 8455 L 15120.6 9017.7 L 15135.6 8455 Z" style="fill:#000000;fill-opacity:1;fill-rule:nonzero;stroke:none" id="path94"/>
      <path d="M 15721.5 3489.9 L 14519.8 3489.9 L 14519.8 7505 L 15721.5 7505 L 15721.5 3489.9" style="fill:#000000;fill-opacity:1;fill-rule:nonzero;stroke:none" id="path96"/>
      <path d="M 15842.5 7336.1 L 14398.8 7336.1 L 14398.8 7433.7 L 15842.5 7433.7 L 15842.5 7336.1" style="fill:#000000;fill-opacity:1;fill-rule:nonzero;stroke:none" id="path98"/>
      <path d="M 15120.6 7048.3 C 15014.1 7048.3 14927.7 6964.3 14927.7 6860.7 L 14927.7 6461 L 15313.6 6461 L 15313.6 6860.7 C 15313.6 6964.3 15227.2 7048.3 15120.6 7048.3" style="fill:#ffffff;fill-opacity:1;fill-rule:nonzero;stroke:none" id="path100"/>
      <path d="M 15693.5 7048.3 C 15586.9 7048.3 15500.6 6964.3 15500.6 6860.7 L 15500.6 6461 L 15693.5 6461 L 15693.5 7048.3" style="fill:#ffffff;fill-opacity:1;fill-rule:nonzero;stroke:none" id="path102"/>
      <path d="M 14547.1 7048.3 C 14653.6 7048.3 14740 6964.3 14740 6860.7 L 14740 6461 L 14547.1 6461 L 14547.1 7048.3" style="fill:#ffffff;fill-opacity:1;fill-rule:nonzero;stroke:none" id="path104"/>
      <path d="M 16595.1 5662.7 C 16374 5635.5 16150.2 5635.5 15929.1 5662.7 C 15834.6 5834.6 15945.5 5988.2 16262.1 6161.1 C 16578.7 5988.2 16689.6 5834.6 16595.1 5662.7" style="fill:#000000;fill-opacity:1;fill-rule:nonzero;stroke:none" id="path106"/>
      <path d="M 16595.1 5662.7 C 16374 5635.5 16150.2 5635.5 15929.1 5662.7 C 15834.6 5834.6 15945.5 5988.2 16262.1 6161.1 C 16578.7 5988.2 16689.6 5834.6 16595.1 5662.7" style="fill:#000000;fill-opacity:1;fill-rule:nonzero;stroke:none" id="path108"/>
      <path d="M 16324.3 6123.6 C 16283 6117.5 16241.2 6117.5 16199.9 6123.6 C 16182.3 6162.4 16203 6197 16262.1 6236 C 16321.2 6197 16341.9 6162.4 16324.3 6123.6" style="fill:#000000;fill-opacity:1;fill-rule:nonzero;stroke:none" id="path110"/>
      <path d="M 16324.3 6123.6 C 16283 6117.5 16241.2 6117.5 16199.9 6123.6 C 16182.3 6162.4 16203 6197 16262.1 6236 C 16321.2 6197 16341.9 6162.4 16324.3 6123.6" style="fill:#000000;fill-opacity:1;fill-rule:nonzero;stroke:none" id="path112"/>
      <path d="M 16282.1 6229.3 C 16268.8 6227.3 16255.4 6227.3 16242.1 6229.3 C 16236.4 6241.8 16243 6252.9 16262.1 6265.5 C 16281.2 6252.9 16287.8 6241.8 16282.1 6229.3" style="fill:#000000;fill-opacity:1;fill-rule:nonzero;stroke:none" id="path114"/>
      <path d="M 16282.1 6229.3 C 16268.8 6227.3 16255.4 6227.3 16242.1 6229.3 C 16236.4 6241.8 16243 6252.9 16262.1 6265.5 C 16281.2 6252.9 16287.8 6241.8 16282.1 6229.3" style="fill:#000000;fill-opacity:1;fill-rule:nonzero;stroke:none" id="path116"/>
      <path d="M 16270.8 6236 L 16253.4 6236 L 16262.1 6563.2 L 16270.8 6236 Z" style="fill:#000000;fill-opacity:1;fill-rule:nonzero;stroke:none" id="path118"/>
      <path d="M 16611.4 3349.6 L 15912.8 3349.6 L 15912.8 5683.8 L 16611.4 5683.8 L 16611.4 3349.6" style="fill:#000000;fill-opacity:1;fill-rule:nonzero;stroke:none" id="path120"/>
      <path d="M 16681.7 5585.6 L 15842.5 5585.6 L 15842.5 5642.3 L 16681.7 5642.3 L 16681.7 5585.6" style="fill:#000000;fill-opacity:1;fill-rule:nonzero;stroke:none" id="path122"/>
      <path d="M 16262.1 5418.3 C 16200.2 5418.3 16149.9 5369.5 16149.9 5309.2 L 16149.9 5076.9 L 16374.3 5076.9 L 16374.3 5309.2 C 16374.3 5369.5 16324 5418.3 16262.1 5418.3" style="fill:#ffffff;fill-opacity:1;fill-rule:nonzero;stroke:none" id="path124"/>
      <path d="M 16595.1 5418.3 C 16533.2 5418.3 16483 5369.5 16483 5309.2 L 16483 5076.9 L 16595.1 5076.9 L 16595.1 5418.3" style="fill:#ffffff;fill-opacity:1;fill-rule:nonzero;stroke:none" id="path126"/>
      <path d="M 15928.7 5418.3 C 15990.6 5418.3 16040.8 5369.5 16040.8 5309.2 L 16040.8 5076.9 L 15928.7 5076.9 L 15928.7 5418.3" style="fill:#ffffff;fill-opacity:1;fill-rule:nonzero;stroke:none" id="path128"/>
      <path d="M 19878.5 4204 C 19568.4 4165.9 19254.7 4165.9 18944.6 4204 C 18812.1 4445 18967.5 4660.4 19411.5 4902.9 C 19855.6 4660.4 20011 4445 19878.5 4204" style="fill:#000000;fill-opacity:1;fill-rule:nonzero;stroke:none" id="path130"/>
      <path d="M 19878.5 4204 C 19568.4 4165.9 19254.7 4165.9 18944.6 4204 C 18812.1 4445 18967.5 4660.4 19411.5 4902.9 C 19855.6 4660.4 20011 4445 19878.5 4204" style="fill:#000000;fill-opacity:1;fill-rule:nonzero;stroke:none" id="path132"/>
      <path d="M 19498.8 4850.4 C 19440.8 4841.8 19382.2 4841.8 19324.3 4850.4 C 19299.6 4904.8 19328.6 4953.3 19411.5 5008 C 19494.5 4953.3 19523.5 4904.8 19498.8 4850.4" style="fill:#000000;fill-opacity:1;fill-rule:nonzero;stroke:none" id="path134"/>
      <path d="M 19498.8 4850.4 C 19440.8 4841.8 19382.2 4841.8 19324.3 4850.4 C 19299.6 4904.8 19328.6 4953.3 19411.5 5008 C 19494.5 4953.3 19523.5 4904.8 19498.8 4850.4" style="fill:#000000;fill-opacity:1;fill-rule:nonzero;stroke:none" id="path136"/>
      <path d="M 19439.6 4998.6 C 19421 4995.8 19402.1 4995.8 19383.5 4998.6 C 19375.5 5016.1 19384.8 5031.7 19411.5 5049.4 C 19438.3 5031.7 19447.6 5016.1 19439.6 4998.6" style="fill:#000000;fill-opacity:1;fill-rule:nonzero;stroke:none" id="path138"/>
      <path d="M 19439.6 4998.6 C 19421 4995.8 19402.1 4995.8 19383.5 4998.6 C 19375.5 5016.1 19384.8 5031.7 19411.5 5049.4 C 19438.3 5031.7 19447.6 5016.1 19439.6 4998.6" style="fill:#000000;fill-opacity:1;fill-rule:nonzero;stroke:none" id="path140"/>
      <path d="M 19423.8 5008 L 19399.3 5008 L 19411.5 5466.8 L 19423.8 5008 Z" style="fill:#000000;fill-opacity:1;fill-rule:nonzero;stroke:none" id="path142"/>
      <path d="M 19901.4 2963.9 L 18921.7 2963.9 L 18921.7 4233.6 L 19901.4 4233.6 L 19901.4 2963.9" style="fill:#000000;fill-opacity:1;fill-rule:nonzero;stroke:none" id="path144"/>
      <path d="M 20000 4095.9 L 18823.1 4095.9 L 18823.1 4175.4 L 20000 4175.4 L 20000 4095.9" style="fill:#000000;fill-opacity:1;fill-rule:nonzero;stroke:none" id="path146"/>
      <path d="M 19411.5 3861.3 C 19324.7 3861.3 19254.3 3792.8 19254.3 3708.4 L 19254.3 3382.5 L 19568.8 3382.5 L 19568.8 3708.4 C 19568.8 3792.8 19498.4 3861.3 19411.5 3861.3" style="fill:#ffffff;fill-opacity:1;fill-rule:nonzero;stroke:none" id="path148"/>
      <path d="m 19878.6,3861.3 c -86.9,0 -157.3,-68.5 -157.3,-152.9 v -325.9 h 157.3 v 478.8" style="fill:#ffffff;fill-opacity:1;fill-rule:nonzero;stroke:none" id="path150"/>
      <path d="M 18944 3861.3 C 19030.8 3861.3 19101.3 3792.8 19101.3 3708.4 L 19101.3 3382.5 L 18944 3382.5 L 18944 3861.3" style="fill:#ffffff;fill-opacity:1;fill-rule:nonzero;stroke:none" id="path152"/>
      <path d="M 5671.21 3701.9 C 6146.22 3643.6 6626.89 3643.6 7101.89 3701.9 C 7304.8 4071.1 7066.75 4401.1 6386.55 4772.5 C 5706.36 4401.1 5468.31 4071.1 5671.21 3701.9" style="fill:#000000;fill-opacity:1;fill-rule:nonzero;stroke:none" id="path154"/>
      <path d="M 5671.21 3701.9 C 6146.22 3643.6 6626.89 3643.6 7101.89 3701.9 C 7304.8 4071.1 7066.75 4401.1 6386.55 4772.5 C 5706.36 4401.1 5468.31 4071.1 5671.21 3701.9" style="fill:#000000;fill-opacity:1;fill-rule:nonzero;stroke:none" id="path156"/>
      <path d="M 6252.96 4692.1 C 6341.67 4679 6431.44 4679 6520.15 4692.1 C 6558.04 4775.4 6513.58 4849.8 6386.55 4933.6 C 6259.52 4849.8 6215.07 4775.4 6252.96 4692.1" style="fill:#000000;fill-opacity:1;fill-rule:nonzero;stroke:none" id="path158"/>
      <path d="M 6252.96 4692.1 C 6341.67 4679 6431.44 4679 6520.15 4692.1 C 6558.04 4775.4 6513.58 4849.8 6386.55 4933.6 C 6259.52 4849.8 6215.07 4775.4 6252.96 4692.1" style="fill:#000000;fill-opacity:1;fill-rule:nonzero;stroke:none" id="path160"/>
      <path d="M 6343.52 4919.1 C 6372.09 4914.9 6401.02 4914.9 6429.59 4919.1 C 6441.8 4945.9 6427.48 4969.9 6386.55 4996.9 C 6345.63 4969.9 6331.31 4945.9 6343.52 4919.1" style="fill:#000000;fill-opacity:1;fill-rule:nonzero;stroke:none" id="path162"/>
      <path d="M 6343.52 4919.1 C 6372.09 4914.9 6401.02 4914.9 6429.59 4919.1 C 6441.8 4945.9 6427.48 4969.9 6386.55 4996.9 C 6345.63 4969.9 6331.31 4945.9 6343.52 4919.1" style="fill:#000000;fill-opacity:1;fill-rule:nonzero;stroke:none" id="path164"/>
      <path d="M 6367.81 4933.6 L 6405.3 4933.6 L 6386.55 5636.4 L 6367.81 4933.6 Z" style="fill:#000000;fill-opacity:1;fill-rule:nonzero;stroke:none" id="path166"/>
      <path d="M 1267.7 3185.2 C 1883.68 3109.5 2507.01 3109.5 3122.99 3185.2 C 3386.11 3664 3077.41 4091.8 2195.34 4573.5 C 1313.27 4091.8 1004.57 3664 1267.7 3185.2" style="fill:#000000;fill-opacity:1;fill-rule:nonzero;stroke:none" id="path168"/>
      <path d="M 1267.7 3185.2 C 1883.68 3109.5 2507.01 3109.5 3122.99 3185.2 C 3386.11 3664 3077.41 4091.8 2195.34 4573.5 C 1313.27 4091.8 1004.57 3664 1267.7 3185.2" style="fill:#000000;fill-opacity:1;fill-rule:nonzero;stroke:none" id="path170"/>
      <path d="M 2022.1 4469.3 C 2137.14 4452.2 2253.54 4452.2 2368.58 4469.3 C 2417.72 4577.3 2360.07 4673.8 2195.34 4782.4 C 2030.61 4673.8 1972.96 4577.3 2022.1 4469.3" style="fill:#000000;fill-opacity:1;fill-rule:nonzero;stroke:none" id="path172"/>
      <path d="M 2022.1 4469.3 C 2137.14 4452.2 2253.54 4452.2 2368.58 4469.3 C 2417.72 4577.3 2360.07 4673.8 2195.34 4782.4 C 2030.61 4673.8 1972.96 4577.3 2022.1 4469.3" style="fill:#000000;fill-opacity:1;fill-rule:nonzero;stroke:none" id="path174"/>
      <path d="M 2139.53 4763.6 C 2176.59 4758.1 2214.09 4758.1 2251.15 4763.6 C 2266.98 4798.4 2248.41 4829.5 2195.34 4864.5 C 2142.27 4829.5 2123.7 4798.4 2139.53 4763.6" style="fill:#000000;fill-opacity:1;fill-rule:nonzero;stroke:none" id="path176"/>
      <path d="M 2139.53 4763.6 C 2176.59 4758.1 2214.09 4758.1 2251.15 4763.6 C 2266.98 4798.4 2248.41 4829.5 2195.34 4864.5 C 2142.27 4829.5 2123.7 4798.4 2139.53 4763.6" style="fill:#000000;fill-opacity:1;fill-rule:nonzero;stroke:none" id="path178"/>
      <path d="m 2171.04,4782.4 h 48.61 l -24.31,911.4 z" style="fill:#000000;fill-opacity:1;fill-rule:nonzero;stroke:none" id="path180"/>
      <path d="M 7282.35 6819 C 7564.2 6784.4 7849.42 6784.4 8131.28 6819 C 8251.68 7038.1 8110.43 7233.8 7706.82 7454.3 C 7303.2 7233.8 7161.95 7038.1 7282.35 6819" style="fill:#000000;fill-opacity:1;fill-rule:nonzero;stroke:none" id="path182"/>
      <path d="M 7282.35 6819 C 7564.2 6784.4 7849.42 6784.4 8131.28 6819 C 8251.68 7038.1 8110.43 7233.8 7706.82 7454.3 C 7303.2 7233.8 7161.95 7038.1 7282.35 6819" style="fill:#000000;fill-opacity:1;fill-rule:nonzero;stroke:none" id="path184"/>
      <path d="M 7627.54 7406.6 C 7680.18 7398.7 7733.45 7398.7 7786.09 7406.6 C 7808.57 7456 7782.19 7500.1 7706.82 7549.8 C 7631.44 7500.1 7605.06 7456 7627.54 7406.6" style="fill:#000000;fill-opacity:1;fill-rule:nonzero;stroke:none" id="path186"/>
      <path d="M 7627.54 7406.6 C 7680.18 7398.7 7733.45 7398.7 7786.09 7406.6 C 7808.57 7456 7782.19 7500.1 7706.82 7549.8 C 7631.44 7500.1 7605.06 7456 7627.54 7406.6" style="fill:#000000;fill-opacity:1;fill-rule:nonzero;stroke:none" id="path188"/>
      <path d="M 7681.28 7541.2 C 7698.24 7538.7 7715.4 7538.7 7732.35 7541.2 C 7739.6 7557.2 7731.1 7571.4 7706.82 7587.4 C 7682.53 7571.4 7674.03 7557.2 7681.28 7541.2" style="fill:#000000;fill-opacity:1;fill-rule:nonzero;stroke:none" id="path190"/>
      <path d="M 7681.28 7541.2 C 7698.24 7538.7 7715.4 7538.7 7732.35 7541.2 C 7739.6 7557.2 7731.1 7571.4 7706.82 7587.4 C 7682.53 7571.4 7674.03 7557.2 7681.28 7541.2" style="fill:#000000;fill-opacity:1;fill-rule:nonzero;stroke:none" id="path192"/>
      <path d="M 7695.69 7549.8 L 7717.94 7549.8 L 7706.82 7966.9 L 7695.69 7549.8 Z" style="fill:#000000;fill-opacity:1;fill-rule:nonzero;stroke:none" id="path194"/>
      <path d="M 7261.58 3870.5 L 8152.06 3870.5 L 8152.06 6845.9 L 7261.58 6845.9 L 7261.58 3870.5" style="fill:#000000;fill-opacity:1;fill-rule:nonzero;stroke:none" id="path196"/>
      <path d="M 7171.9 6720.7 L 8241.72 6720.7 L 8241.72 6793 L 7171.9 6793 L 7171.9 6720.7" style="fill:#000000;fill-opacity:1;fill-rule:nonzero;stroke:none" id="path198"/>
      <path d="M 7706.82 6507.5 C 7785.78 6507.5 7849.79 6445.2 7849.79 6368.4 L 7849.79 6072.2 L 7563.85 6072.2 L 7563.85 6368.4 C 7563.85 6445.2 7627.86 6507.5 7706.82 6507.5" style="fill:#ffffff;fill-opacity:1;fill-rule:nonzero;stroke:none" id="path200"/>
      <path d="M 7282.29 6507.5 C 7361.26 6507.5 7425.27 6445.2 7425.27 6368.4 L 7425.27 6072.2 L 7282.29 6072.2 L 7282.29 6507.5" style="fill:#ffffff;fill-opacity:1;fill-rule:nonzero;stroke:none" id="path202"/>
      <path d="M 8131.85 6507.5 C 8052.89 6507.5 7988.88 6445.2 7988.88 6368.4 L 7988.88 6072.2 L 8131.85 6072.2 L 8131.85 6507.5" style="fill:#ffffff;fill-opacity:1;fill-rule:nonzero;stroke:none" id="path204"/>
      <path d="M 4306.57 7468.7 C 4686.92 7422 5071.81 7422 5452.17 7468.7 C 5614.64 7764.4 5424.03 8028.5 4879.37 8326 C 4334.71 8028.5 4144.1 7764.4 4306.57 7468.7" style="fill:#000000;fill-opacity:1;fill-rule:nonzero;stroke:none" id="path206"/>
      <path d="M 4306.57 7468.7 C 4686.92 7422 5071.81 7422 5452.17 7468.7 C 5614.64 7764.4 5424.03 8028.5 4879.37 8326 C 4334.71 8028.5 4144.1 7764.4 4306.57 7468.7" style="fill:#000000;fill-opacity:1;fill-rule:nonzero;stroke:none" id="path208"/>
      <path d="M 4772.4 8261.6 C 4843.43 8251.1 4915.31 8251.1 4986.34 8261.6 C 5016.68 8328.3 4981.09 8387.9 4879.37 8455 C 4777.65 8387.9 4742.06 8328.3 4772.4 8261.6" style="fill:#000000;fill-opacity:1;fill-rule:nonzero;stroke:none" id="path210"/>
      <path d="M 4772.4 8261.6 C 4843.43 8251.1 4915.31 8251.1 4986.34 8261.6 C 5016.68 8328.3 4981.09 8387.9 4879.37 8455 C 4777.65 8387.9 4742.06 8328.3 4772.4 8261.6" style="fill:#000000;fill-opacity:1;fill-rule:nonzero;stroke:none" id="path212"/>
      <path d="M 4844.91 8443.3 C 4867.79 8440 4890.95 8440 4913.83 8443.3 C 4923.61 8464.8 4912.14 8484 4879.37 8505.6 C 4846.6 8484 4835.13 8464.8 4844.91 8443.3" style="fill:#000000;fill-opacity:1;fill-rule:nonzero;stroke:none" id="path214"/>
      <path d="M 4844.91 8443.3 C 4867.79 8440 4890.95 8440 4913.83 8443.3 C 4923.61 8464.8 4912.14 8484 4879.37 8505.6 C 4846.6 8484 4835.13 8464.8 4844.91 8443.3" style="fill:#000000;fill-opacity:1;fill-rule:nonzero;stroke:none" id="path216"/>
      <path d="M 4864.36 8455 L 4894.38 8455 L 4879.37 9017.7 L 4864.36 8455 Z" style="fill:#000000;fill-opacity:1;fill-rule:nonzero;stroke:none" id="path218"/>
      <path d="M 4278.54 3489.9 L 5480.2 3489.9 L 5480.2 7505 L 4278.54 7505 L 4278.54 3489.9" style="fill:#000000;fill-opacity:1;fill-rule:nonzero;stroke:none" id="path220"/>
      <path d="M 4157.54 7336.1 L 5601.2 7336.1 L 5601.2 7433.7 L 4157.54 7433.7 L 4157.54 7336.1" style="fill:#000000;fill-opacity:1;fill-rule:nonzero;stroke:none" id="path222"/>
      <path d="M 4879.37 7048.3 C 4985.92 7048.3 5072.3 6964.3 5072.3 6860.7 L 5072.3 6461 L 4686.44 6461 L 4686.44 6860.7 C 4686.44 6964.3 4772.82 7048.3 4879.37 7048.3" style="fill:#ffffff;fill-opacity:1;fill-rule:nonzero;stroke:none" id="path224"/>
      <path d="M 4306.5 7048.3 C 4413.06 7048.3 4499.43 6964.3 4499.43 6860.7 L 4499.43 6461 L 4306.5 6461 L 4306.5 7048.3" style="fill:#ffffff;fill-opacity:1;fill-rule:nonzero;stroke:none" id="path226"/>
      <path d="M 5452.92 7048.3 C 5346.37 7048.3 5260 6964.3 5260 6860.7 L 5260 6461 L 5452.92 6461 L 5452.92 7048.3" style="fill:#ffffff;fill-opacity:1;fill-rule:nonzero;stroke:none" id="path228"/>
      <path d="m 3404.9,5662.7 c 221.12,-27.2 444.88,-27.2 665.99,0 94.46,171.9 -16.35,325.5 -332.99,498.4 -316.64,-172.9 -427.45,-326.5 -333,-498.4" style="fill:#000000;fill-opacity:1;fill-rule:nonzero;stroke:none" id="path230"/>
      <path d="m 3404.9,5662.7 c 221.12,-27.2 444.88,-27.2 665.99,0 94.46,171.9 -16.35,325.5 -332.99,498.4 -316.64,-172.9 -427.45,-326.5 -333,-498.4" style="fill:#000000;fill-opacity:1;fill-rule:nonzero;stroke:none" id="path232"/>
      <path d="M 3675.71 6123.6 C 3717.01 6117.5 3758.79 6117.5 3800.09 6123.6 C 3817.73 6162.4 3797.03 6197 3737.9 6236 C 3678.76 6197 3658.07 6162.4 3675.71 6123.6" style="fill:#000000;fill-opacity:1;fill-rule:nonzero;stroke:none" id="path234"/>
      <path d="M 3675.71 6123.6 C 3717.01 6117.5 3758.79 6117.5 3800.09 6123.6 C 3817.73 6162.4 3797.03 6197 3737.9 6236 C 3678.76 6197 3658.07 6162.4 3675.71 6123.6" style="fill:#000000;fill-opacity:1;fill-rule:nonzero;stroke:none" id="path236"/>
      <path d="M 3717.87 6229.3 C 3731.17 6227.3 3744.63 6227.3 3757.93 6229.3 C 3763.62 6241.8 3756.95 6252.9 3737.9 6265.5 C 3718.85 6252.9 3712.18 6241.8 3717.87 6229.3" style="fill:#000000;fill-opacity:1;fill-rule:nonzero;stroke:none" id="path238"/>
      <path d="M 3717.87 6229.3 C 3731.17 6227.3 3744.63 6227.3 3757.93 6229.3 C 3763.62 6241.8 3756.95 6252.9 3737.9 6265.5 C 3718.85 6252.9 3712.18 6241.8 3717.87 6229.3" style="fill:#000000;fill-opacity:1;fill-rule:nonzero;stroke:none" id="path240"/>
      <path d="M 3729.17 6236 L 3746.63 6236 L 3737.9 6563.2 L 3729.17 6236 Z" style="fill:#000000;fill-opacity:1;fill-rule:nonzero;stroke:none" id="path242"/>
      <path d="M 3388.61 3349.6 L 4087.19 3349.6 L 4087.19 5683.8 L 3388.61 5683.8 L 3388.61 3349.6" style="fill:#000000;fill-opacity:1;fill-rule:nonzero;stroke:none" id="path244"/>
      <path d="M 3318.26 5585.6 L 4157.54 5585.6 L 4157.54 5642.3 L 3318.26 5642.3 L 3318.26 5585.6" style="fill:#000000;fill-opacity:1;fill-rule:nonzero;stroke:none" id="path246"/>
      <path d="M 3737.9 5418.3 C 3799.84 5418.3 3850.06 5369.5 3850.06 5309.2 L 3850.06 5076.9 L 3625.74 5076.9 L 3625.74 5309.2 C 3625.74 5369.5 3675.96 5418.3 3737.9 5418.3" style="fill:#ffffff;fill-opacity:1;fill-rule:nonzero;stroke:none" id="path248"/>
      <path d="M 3404.86 5418.3 C 3466.81 5418.3 3517.03 5369.5 3517.03 5309.2 L 3517.03 5076.9 L 3404.86 5076.9 L 3404.86 5418.3" style="fill:#ffffff;fill-opacity:1;fill-rule:nonzero;stroke:none" id="path250"/>
      <path d="M 4071.34 5418.3 C 4009.39 5418.3 3959.17 5369.5 3959.17 5309.2 L 3959.17 5076.9 L 4071.34 5076.9 L 4071.34 5418.3" style="fill:#ffffff;fill-opacity:1;fill-rule:nonzero;stroke:none" id="path252"/>
      <path d="m 121.5,4204 c 310.066,-38.1 623.836,-38.1 933.91,0 132.45,241 -22.94,456.4 -466.957,698.9 C 144.438,4660.4 -10.9531,4445 121.5,4204" style="fill:#000000;fill-opacity:1;fill-rule:nonzero;stroke:none" id="path254"/>
      <path d="m 121.5,4204 c 310.066,-38.1 623.836,-38.1 933.91,0 132.45,241 -22.94,456.4 -466.957,698.9 C 144.438,4660.4 -10.9531,4445 121.5,4204" style="fill:#000000;fill-opacity:1;fill-rule:nonzero;stroke:none" id="path256"/>
      <path d="M 501.246 4850.4 C 559.156 4841.8 617.754 4841.8 675.66 4850.4 C 700.395 4904.8 671.379 4953.3 588.453 5008 C 505.531 4953.3 476.508 4904.8 501.246 4850.4" style="fill:#000000;fill-opacity:1;fill-rule:nonzero;stroke:none" id="path258"/>
      <path d="M 501.246 4850.4 C 559.156 4841.8 617.754 4841.8 675.66 4850.4 C 700.395 4904.8 671.379 4953.3 588.453 5008 C 505.531 4953.3 476.508 4904.8 501.246 4850.4" style="fill:#000000;fill-opacity:1;fill-rule:nonzero;stroke:none" id="path260"/>
      <path d="M 560.355 4998.6 C 579.016 4995.8 597.891 4995.8 616.547 4998.6 C 624.516 5016.1 615.168 5031.7 588.453 5049.4 C 561.738 5031.7 552.387 5016.1 560.355 4998.6" style="fill:#000000;fill-opacity:1;fill-rule:nonzero;stroke:none" id="path262"/>
      <path d="M 560.355 4998.6 C 579.016 4995.8 597.891 4995.8 616.547 4998.6 C 624.516 5016.1 615.168 5031.7 588.453 5049.4 C 561.738 5031.7 552.387 5016.1 560.355 4998.6" style="fill:#000000;fill-opacity:1;fill-rule:nonzero;stroke:none" id="path264"/>
      <path d="M 576.215 5008 L 600.688 5008 L 588.453 5466.8 L 576.215 5008 Z" style="fill:#000000;fill-opacity:1;fill-rule:nonzero;stroke:none" id="path266"/>
      <path d="M 98.648 2963.9 L 1078.26 2963.9 L 1078.26 4233.6 L 98.648 4233.6 L 98.648 2963.9" style="fill:#000000;fill-opacity:1;fill-rule:nonzero;stroke:none" id="path268"/>
      <path d="m 0,4095.9 h 1176.9 v 79.5 H 0 v -79.5" style="fill:#000000;fill-opacity:1;fill-rule:nonzero;stroke:none" id="path270"/>
      <path d="m 588.453,3861.3 c 86.863,0 157.277,-68.5 157.277,-152.9 V 3382.5 H 431.172 v 325.9 c 0,84.4 70.414,152.9 157.281,152.9" style="fill:#ffffff;fill-opacity:1;fill-rule:nonzero;stroke:none" id="path272"/>
      <path d="M 121.441 3861.3 C 208.305 3861.3 278.723 3792.8 278.723 3708.4 L 278.723 3382.5 L 121.441 3382.5 L 121.441 3861.3" style="fill:#ffffff;fill-opacity:1;fill-rule:nonzero;stroke:none" id="path274"/>
      <path d="m 1056.03,3861.3 c -86.87,0 -157.284,-68.5 -157.284,-152.9 v -325.9 h 157.284 v 478.8" style="fill:#ffffff;fill-opacity:1;fill-rule:nonzero;stroke:none" id="path276"/>
      <path d="M 18921.7 3041.7 C 18694.3 3041.7 18732.3 3263 18732.3 3263 C 18732.3 3263 17167.8 3233 16877 3263 C 16586.2 3293 16611.4 3427.4 16611.4 3427.4 C 16611.4 3427.4 16090.6 3427.4 15912.8 3427.4 C 15735 3427.4 15721.5 3567.7 15721.5 3567.7 C 15721.5 3567.7 14755.7 3567.7 14519.8 3567.7 C 14283.9 3567.7 14328.8 3779.7 14328.8 3779.7 C 14328.8 3779.7 13047 3763.5 12898.1 3779.7 C 12749.2 3796 12738.4 3948.3 12738.4 3948.3 C 12738.4 3948.3 12103.7 3948.3 11847.9 3948.3 C 11592.2 3948.3 11626.9 4218.7 11626.9 4218.7 L 10003.2 4218.7 L 9996.8 4218.7 L 8373.1 4218.7 C 8373.1 4218.7 8407.83 3948.3 8152.06 3948.3 C 7896.28 3948.3 7261.58 3948.3 7261.58 3948.3 C 7261.58 3948.3 7250.81 3796 7101.89 3779.7 C 6952.99 3763.5 5671.22 3779.7 5671.22 3779.7 C 5671.22 3779.7 5716.12 3567.7 5480.2 3567.7 C 5244.27 3567.7 4278.54 3567.7 4278.54 3567.7 C 4278.54 3567.7 4264.96 3427.4 4087.19 3427.4 C 3909.43 3427.4 3388.61 3427.4 3388.61 3427.4 C 3388.61 3427.4 3413.78 3293 3122.99 3263 C 2832.2 3233 1267.7 3263 1267.7 3263 C 1267.7 3263 1305.74 3041.7 1078.26 3041.7 C 850.781 3041.7 98.644 3041.7 98.644 3041.7 L 98.645 0 L 9996.8 0 L 10003.2 0 L 19901.4 0 L 19901.4 3041.7 C 19901.4 3041.7 19149.2 3041.7 18921.7 3041.7" style="fill:#000000;fill-opacity:1;fill-rule:nonzero;stroke:none" id="path278"/>
    </g>
  </g>
</svg>